<svg width="285" height="253" viewBox="0 0 285 253" fill="none" xmlns="http://www.w3.org/2000/svg">
  <path d="M196.942 96.3344C202.844 104.434 206.892 112.64 208.694 119.326C209.596 122.674 209.918 125.574 209.672 127.86C209.426 130.146 208.635 131.677 207.447 132.543C206.259 133.408 204.559 133.692 202.308 133.226C200.057 132.76 197.394 131.565 194.484 129.68C188.672 125.916 182.1 119.548 176.199 111.449C170.297 103.349 166.249 95.1432 164.447 88.4569C163.544 85.1094 163.223 82.2087 163.469 79.923C163.714 77.6376 164.506 76.1062 165.694 75.2406C166.882 74.3749 168.582 74.0908 170.833 74.5571C173.084 75.0235 175.747 76.2182 178.657 78.1028C184.469 81.8671 191.04 88.235 196.942 96.3344Z" stroke="#26282C" style="stroke:#26282C;stroke:color(display-p3 0.1490 0.1569 0.1725);stroke-opacity:1;" stroke-width="2.5"/>
  <path d="M164.219 73.7485L204.277 2.30495C204.532 1.85032 205.104 1.67233 205.576 1.89258C270.612 32.2166 286.373 89.7748 283.533 115.149C283.486 115.562 283.184 115.881 282.779 115.978L207.974 133.749C207.77 133.798 207.55 133.779 207.356 133.697C170.63 118.327 163.213 87.7712 164.095 74.1589C164.104 74.0123 164.147 73.8766 164.219 73.7485Z" fill="black" fill-opacity="0.3" style="fill:black;fill-opacity:0.3;"/>
  <path d="M204.728 1.5L164.153 73.8651C164.124 73.917 164.101 73.9675 164.082 74.024C159.867 86.6597 180.25 129.443 207.467 133.794C207.594 133.814 207.724 133.808 207.849 133.779L283.452 115.818" stroke="#26282C" style="stroke:#26282C;stroke:color(display-p3 0.1490 0.1569 0.1725);stroke-opacity:1;" stroke-width="2.5" stroke-linecap="round"/>
  <path d="M146.522 89.4367C150.151 105.628 163.775 138.849 190.909 147.224" stroke="#26282C" style="stroke:#26282C;stroke:color(display-p3 0.1490 0.1569 0.1725);stroke-opacity:1;" stroke-width="2.5" stroke-linecap="round"/>
  <path d="M141.498 168.999L37.2301 248.142C17.5718 261.944 -8.35225 229.793 6.60765 213.444C6.64244 213.406 6.6814 213.37 6.72177 213.337L59.4236 171.511" stroke="#26282C" style="stroke:#26282C;stroke:color(display-p3 0.1490 0.1569 0.1725);stroke-opacity:1;" stroke-width="2.5" stroke-linecap="round"/>
  <path d="M113.96 130.474L102.235 138.011" stroke="#26282C" style="stroke:#26282C;stroke:color(display-p3 0.1490 0.1569 0.1725);stroke-opacity:1;" stroke-width="2.5" stroke-linecap="round"/>
  <path d="M163.691 74.7805L124.329 105.349C117.07 112.189 106.406 131.563 121.816 154.342C137.226 177.122 162.295 169.138 172.903 162.299L207.088 133.824" stroke="#26282C" style="stroke:#26282C;stroke:color(display-p3 0.1490 0.1569 0.1725);stroke-opacity:1;" stroke-width="2.5" stroke-linecap="round"/>
  <path d="M11.2673 223.017C12.5236 228.879 17.716 241.19 28.4359 243.535" stroke="#26282C" style="stroke:#26282C;stroke:color(display-p3 0.1490 0.1569 0.1725);stroke-opacity:1;" stroke-width="2.5" stroke-linecap="round"/>
  <path d="M69.9917 182.398L103.491 157.692C106.004 155.599 108.098 153.924 104.329 145.13" stroke="#26282C" style="stroke:#26282C;stroke:color(display-p3 0.1490 0.1569 0.1725);stroke-opacity:1;" stroke-width="2.5" stroke-linecap="round"/>
  <path d="M67.4791 159.786L64.5694 161.968C64.2953 162.174 64.1455 162.505 64.1725 162.847L65.2449 176.432C65.3064 177.211 66.1973 177.621 66.8294 177.162L99.986 153.084C100.33 152.835 100.478 152.395 100.356 151.988L97.1796 141.399C96.9865 140.755 96.2262 140.482 95.6671 140.854L89.2539 145.13" stroke="#26282C" style="stroke:#26282C;stroke:color(display-p3 0.1490 0.1569 0.1725);stroke-opacity:1;" stroke-width="2.5" stroke-linecap="round"/>
  <ellipse cx="78.0936" cy="151.773" rx="5.09688" ry="10.2236" transform="rotate(53.7399 78.0936 151.773)" fill="#26282C" style="fill:#26282C;fill:color(display-p3 0.1490 0.1569 0.1725);fill-opacity:1;"/>
  </svg>
  