<svg width="339" height="254" viewBox="0 0 339 254" fill="none" xmlns="http://www.w3.org/2000/svg">
  <path d="M126.115 210.894C85.3021 211.892 64.6863 224.01 59.9073 229.607C59.7489 229.793 59.4897 229.843 59.2828 229.714C54.5199 226.739 50.8718 216.405 76.4118 209.169C99.7976 202.543 118.616 201.245 125.944 199.701C126.225 199.642 126.495 199.827 126.539 200.111C126.956 202.81 127.425 207.869 126.565 210.571C126.503 210.764 126.317 210.889 126.115 210.894Z" fill="#26282C" style="fill:#26282C;fill:color(display-p3 0.1490 0.1569 0.1725);fill-opacity:1;"/>
  <path d="M259.098 229.904C252.22 217.603 213.282 211.888 193.969 210.518C193.707 210.5 193.514 210.282 193.514 210.02V204.996C193.514 204.857 193.571 204.725 193.674 204.631C194.855 203.541 197.256 201.366 198.795 200.118C198.898 200.034 199.024 199.996 199.156 200.011C209.915 201.237 235.062 205.38 251.247 212.362C266.896 219.112 263.742 226.723 259.855 230.059C259.614 230.265 259.253 230.181 259.098 229.904Z" fill="#26282C" style="fill:#26282C;fill:color(display-p3 0.1490 0.1569 0.1725);fill-opacity:1;"/>
  <path d="M90.529 148.615L165.972 104.707" stroke="#26282C" style="stroke:#26282C;stroke:color(display-p3 0.1490 0.1569 0.1725);stroke-opacity:1;" stroke-width="2.5" stroke-linecap="round"/>
  <path d="M210.679 77.9624L277.739 38.8438" stroke="#26282C" style="stroke:#26282C;stroke:color(display-p3 0.1490 0.1569 0.1725);stroke-opacity:1;" stroke-width="2.5" stroke-linecap="round"/>
  <path d="M213.872 101.912L280.774 62.8861C280.876 62.8266 280.953 62.7373 280.991 62.6255C283.849 54.3127 283.811 35.1514 261.221 23.404C261.07 23.3254 260.885 23.3279 260.737 23.4135L199.103 59.2014" stroke="#26282C" style="stroke:#26282C;stroke:color(display-p3 0.1490 0.1569 0.1725);stroke-opacity:1;" stroke-width="2.5" stroke-linecap="round"/>
  <path d="M36.641 205.297L152.001 138.636" stroke="#26282C" style="stroke:#26282C;stroke:color(display-p3 0.1490 0.1569 0.1725);stroke-opacity:1;" stroke-width="2.5" stroke-linecap="round"/>
  <path d="M12.6907 168.574L154.396 85.9458" stroke="#26282C" style="stroke:#26282C;stroke:color(display-p3 0.1490 0.1569 0.1725);stroke-opacity:1;" stroke-width="2.5" stroke-linecap="round"/>
  <path d="M260.575 23.2762L317.486 6.56099C317.596 6.52872 317.711 6.53359 317.816 6.57961C321.025 7.98784 326.891 12.6436 326.059 20.6955C326.047 20.814 325.991 20.9257 325.903 21.0068L280.932 62.7939" stroke="#26282C" style="stroke:#26282C;stroke:color(display-p3 0.1490 0.1569 0.1725);stroke-opacity:1;" stroke-width="2.5" stroke-linecap="round"/>
  <path d="M329.631 2.51891L317.257 6.51068C326.198 10.0233 326.664 17.6878 325.733 21.2804L335.712 10.503C339.704 4.51574 334.022 0.523584 329.631 2.51891Z" fill="#26282C" stroke="#26282C" style="fill:#26282C;fill:color(display-p3 0.1490 0.1569 0.1725);fill-opacity:1;stroke:#26282C;stroke:color(display-p3 0.1490 0.1569 0.1725);stroke-opacity:1;" stroke-width="2.5" stroke-linecap="round"/>
  <path d="M147.61 81.1556C157.456 83.9498 174.195 95.3661 162.379 118.678C156.791 127.459 143.263 144.717 159.186 149.813C179.144 156.199 211.477 129.854 213.473 102.312C214.005 82.7523 203.574 43.5539 157.589 43.2346C136.832 44.0329 102.265 62.714 112.483 108.698" stroke="#26282C" style="stroke:#26282C;stroke:color(display-p3 0.1490 0.1569 0.1725);stroke-opacity:1;" stroke-width="2.5" stroke-linecap="round"/>
  <path d="M125.256 153.804C129.647 170.17 133.559 211.444 114.08 245.613" stroke="#26282C" style="stroke:#26282C;stroke:color(display-p3 0.1490 0.1569 0.1725);stroke-opacity:1;" stroke-width="2.5" stroke-linecap="round"/>
  <path d="M186.33 248.407C186.862 247.476 188.166 244.735 189.124 241.222" stroke="#26282C" style="stroke:#26282C;stroke:color(display-p3 0.1490 0.1569 0.1725);stroke-opacity:1;" stroke-width="2.5" stroke-linecap="round"/>
  <path d="M192.716 218.071C192.982 215.143 193.355 208.251 192.716 204.1" stroke="#26282C" style="stroke:#26282C;stroke:color(display-p3 0.1490 0.1569 0.1725);stroke-opacity:1;" stroke-width="2.5" stroke-linecap="round"/>
  <path d="M190.321 180.948C189.922 177.222 188.725 169.053 187.128 166.179" stroke="#26282C" style="stroke:#26282C;stroke:color(display-p3 0.1490 0.1569 0.1725);stroke-opacity:1;" stroke-width="2.5" stroke-linecap="round"/>
  <path d="M183.668 180.948H189.648C190.126 180.948 190.352 181.576 190.006 181.905C186.062 185.661 181.611 193.872 188.48 203.623C188.725 203.972 188.459 204.458 188.035 204.409C173.865 202.78 178.023 184.318 183.424 181.014C183.499 180.968 183.581 180.948 183.668 180.948Z" fill="#26282C" stroke="#26282C" style="fill:#26282C;fill:color(display-p3 0.1490 0.1569 0.1725);fill-opacity:1;stroke:#26282C;stroke:color(display-p3 0.1490 0.1569 0.1725);stroke-opacity:1;" stroke-width="2.5" stroke-linecap="round"/>
  <path d="M157.546 170.17C141.978 169.372 146.369 149.813 151.958 146.619L154.649 148.096C149.22 161.508 154.318 168.401 157.546 170.17Z" fill="#26282C" stroke="#26282C" style="fill:#26282C;fill:color(display-p3 0.1490 0.1569 0.1725);fill-opacity:1;stroke:#26282C;stroke:color(display-p3 0.1490 0.1569 0.1725);stroke-opacity:1;" stroke-width="2.5" stroke-linecap="round"/>
  <path d="M181.635 168.023C175.41 166.684 172.538 155.809 175.866 149.181C175.921 149.073 176.014 148.99 176.126 148.946L180.538 147.231C180.907 147.088 181.289 147.414 181.219 147.804C179.344 158.217 183.04 163.346 185.897 165.122C186.276 165.358 186.285 165.981 185.879 166.168L181.937 167.988C181.843 168.031 181.737 168.045 181.635 168.023Z" fill="#26282C" stroke="#26282C" style="fill:#26282C;fill:color(display-p3 0.1490 0.1569 0.1725);fill-opacity:1;stroke:#26282C;stroke:color(display-p3 0.1490 0.1569 0.1725);stroke-opacity:1;" stroke-width="2.5" stroke-linecap="round"/>
  <path d="M157.051 180.948H165.427C159.525 183.837 151.615 192.28 162.876 203.836C163.199 204.167 162.949 204.729 162.489 204.683C145.618 203.001 150.391 184.31 156.834 180.999C156.902 180.964 156.975 180.948 157.051 180.948Z" fill="#26282C" stroke="#26282C" style="fill:#26282C;fill:color(display-p3 0.1490 0.1569 0.1725);fill-opacity:1;stroke:#26282C;stroke:color(display-p3 0.1490 0.1569 0.1725);stroke-opacity:1;" stroke-width="2.5" stroke-linecap="round"/>
  <path d="M157.546 217.671H165.13C159.975 220.373 152.359 228.864 163.134 241.222C148.262 243.497 151.957 220.865 157.546 217.671Z" fill="#26282C" stroke="#26282C" style="fill:#26282C;fill:color(display-p3 0.1490 0.1569 0.1725);fill-opacity:1;stroke:#26282C;stroke:color(display-p3 0.1490 0.1569 0.1725);stroke-opacity:1;" stroke-width="2.5" stroke-linecap="round"/>
  <path d="M184.024 217.671H190.034C190.508 217.671 190.743 218.301 190.417 218.645C187.214 222.014 183.686 229.712 189.069 240.431C189.244 240.779 188.971 241.194 188.584 241.154C174.183 239.671 178.355 221.057 183.78 217.737C183.854 217.692 183.937 217.671 184.024 217.671Z" fill="#26282C" stroke="#26282C" style="fill:#26282C;fill:color(display-p3 0.1490 0.1569 0.1725);fill-opacity:1;stroke:#26282C;stroke:color(display-p3 0.1490 0.1569 0.1725);stroke-opacity:1;" stroke-width="2.5" stroke-linecap="round"/>
  <path d="M187.926 183.343C188.857 182.012 192.328 179.238 195.909 182.544C201.099 187.335 200.568 200.665 192.716 204.1C186.329 206.894 182.338 196.116 183.934 190.128" stroke="#26282C" style="stroke:#26282C;stroke:color(display-p3 0.1490 0.1569 0.1725);stroke-opacity:1;" stroke-width="2.5" stroke-linecap="round"/>
  <path d="M161.534 183.306C162.465 181.976 165.936 179.201 169.517 182.508C174.706 187.298 174.176 200.628 166.324 204.063C159.937 206.857 155.945 196.079 157.542 190.092" stroke="#26282C" style="stroke:#26282C;stroke:color(display-p3 0.1490 0.1569 0.1725);stroke-opacity:1;" stroke-width="2.5" stroke-linecap="round"/>
  <path d="M187.879 220.03C188.81 218.699 192.281 215.925 195.862 219.231C201.052 224.022 200.521 237.352 192.669 240.787C186.282 243.581 182.291 232.803 183.887 226.815" stroke="#26282C" style="stroke:#26282C;stroke:color(display-p3 0.1490 0.1569 0.1725);stroke-opacity:1;" stroke-width="2.5" stroke-linecap="round"/>
  <path d="M161.534 220.03C162.465 218.699 165.936 215.925 169.517 219.231C174.706 224.022 174.176 237.352 166.324 240.787C159.937 243.581 155.945 232.803 157.542 226.815" stroke="#26282C" style="stroke:#26282C;stroke:color(display-p3 0.1490 0.1569 0.1725);stroke-opacity:1;" stroke-width="2.5" stroke-linecap="round"/>
  <path d="M192.669 143.389C197.858 148.18 197.328 161.509 189.476 164.945C183.089 167.739 179.097 156.961 180.694 150.973" stroke="#26282C" style="stroke:#26282C;stroke:color(display-p3 0.1490 0.1569 0.1725);stroke-opacity:1;" stroke-width="2.5" stroke-linecap="round"/>
  <path d="M152.254 155.68C150.657 161.668 154.25 172.844 160.637 170.05C167.117 167.215 168.166 157.76 165.573 151.809" stroke="#26282C" style="stroke:#26282C;stroke:color(display-p3 0.1490 0.1569 0.1725);stroke-opacity:1;" stroke-width="2.5" stroke-linecap="round"/>
  <path d="M197.506 200.298C236.504 204.165 264.167 213.881 264.167 225.256C264.167 240.026 217.523 252 159.984 252C102.446 252 55.8011 240.026 55.8011 225.256C55.8011 213.345 86.1334 203.252 128.051 199.791" stroke="#26282C" style="stroke:#26282C;stroke:color(display-p3 0.1490 0.1569 0.1725);stroke-opacity:1;" stroke-width="2.5" stroke-linecap="round"/>
  <ellipse cx="23.3996" cy="187.886" rx="11.7159" ry="24.0369" transform="rotate(-31.1715 23.3996 187.886)" fill="#26282C" style="fill:#26282C;fill:color(display-p3 0.1490 0.1569 0.1725);fill-opacity:1;"/>
  <path d="M81.7779 178.364C82.2568 156.315 68.433 145.216 60.3639 141.813C59.9763 141.65 59.9323 141.108 60.2933 140.892L73.3963 133.06C73.5351 132.977 73.6998 132.963 73.8472 133.03C81.4685 136.484 96.0059 148.54 95.1832 170.192C95.1771 170.352 95.0938 170.502 94.9605 170.59L82.5627 178.81C82.2226 179.036 81.769 178.772 81.7779 178.364Z" fill="#26282C" style="fill:#26282C;fill:color(display-p3 0.1490 0.1569 0.1725);fill-opacity:1;"/>
  </svg>
  