<svg width="250" height="251" viewBox="0 0 250 251" fill="none" xmlns="http://www.w3.org/2000/svg">
  <circle cx="128.389" cy="237.479" r="11.7708" stroke="#26282C" style="stroke:#26282C;stroke:color(display-p3 0.1490 0.1569 0.1725);stroke-opacity:1;" stroke-width="2.5"/>
  <path d="M125.785 216.646C123.615 209.846 122.487 184.788 130.126 161.524" stroke="#26282C" style="stroke:#26282C;stroke:color(display-p3 0.1490 0.1569 0.1725);stroke-opacity:1;" stroke-width="2.5" stroke-linecap="round" stroke-dasharray="0.5 7"/>
  <path d="M132.73 138.087L82.8166 21.7673" stroke="#26282C" style="stroke:#26282C;stroke:color(display-p3 0.1490 0.1569 0.1725);stroke-opacity:1;" stroke-width="2.5" stroke-linecap="round" stroke-dasharray="0.5 7"/>
  <circle cx="78.0423" cy="8.3125" r="7.0625" stroke="#26282C" style="stroke:#26282C;stroke:color(display-p3 0.1490 0.1569 0.1725);stroke-opacity:1;" stroke-width="1.5"/>
  <path d="M41.584 23.0695C45.3456 25.6736 55.4729 29.3195 65.8895 23.0695" stroke="#26282C" style="stroke:#26282C;stroke:color(display-p3 0.1490 0.1569 0.1725);stroke-opacity:1;" stroke-width="2.5" stroke-linecap="round"/>
  <path d="M65.8889 30.448C62.1273 33.1968 52.0868 37.2188 42.0174 31.3161V44.3369C9.03213 51.7154 -0.516708 110.309 52.4341 117.688C67.1911 118.99 90.6288 109.007 92.7989 82.9654C94.969 56.9237 74.5697 46.9411 65.8889 44.3369" stroke="#26282C" style="stroke:#26282C;stroke:color(display-p3 0.1490 0.1569 0.1725);stroke-opacity:1;" stroke-width="2.5" stroke-linecap="round"/>
  <path d="M1.65344 119.424L13.3722 111.611" stroke="#26282C" style="stroke:#26282C;stroke:color(display-p3 0.1490 0.1569 0.1725);stroke-opacity:1;" stroke-width="2.5" stroke-linecap="round"/>
  <path d="M21.1847 137.219L28.9972 125.066" stroke="#26282C" style="stroke:#26282C;stroke:color(display-p3 0.1490 0.1569 0.1725);stroke-opacity:1;" stroke-width="2.5" stroke-linecap="round"/>
  <path d="M56.3409 131.576V145.031" stroke="#26282C" style="stroke:#26282C;stroke:color(display-p3 0.1490 0.1569 0.1725);stroke-opacity:1;" stroke-width="2.5" stroke-linecap="round"/>
  <path d="M79.3445 125.934L85.8549 135.483" stroke="#26282C" style="stroke:#26282C;stroke:color(display-p3 0.1490 0.1569 0.1725);stroke-opacity:1;" stroke-width="2.5" stroke-linecap="round"/>
  <path d="M94.5354 111.611L104.518 117.687" stroke="#26282C" style="stroke:#26282C;stroke:color(display-p3 0.1490 0.1569 0.1725);stroke-opacity:1;" stroke-width="2.5" stroke-linecap="round"/>
  <path d="M52.435 42.1667C53.8818 55.0429 51.1327 86.0036 38.5458 89.9098C32.9034 90.7779 27.4898 80.3472 40.2818 74.7188C51.1327 69.9445 55.6403 85.9019 55.0392 92.514C54.6051 97.2883 46.7838 98.6772 47.6607 88.6077C48.7568 76.0209 68.0597 76.889 72.3999 84.7015C75.5617 90.3926 70.2298 97.7223 64.1534 92.514C57.9763 87.2193 61.9833 66.9063 59.8131 49.9792" stroke="#26282C" style="stroke:#26282C;stroke:color(display-p3 0.1490 0.1569 0.1725);stroke-opacity:1;" stroke-width="1.5" stroke-linecap="round"/>
  <path d="M195.829 173.775C187.149 171.75 173.528 161.437 159.64 150.673C142.278 137.219 129.857 139.921 128.989 145.997C128.121 152.074 151.559 171.171 163.711 179.418C175.864 187.664 184.979 211.97 230.985 219.782" stroke="#26282C" style="stroke:#26282C;stroke:color(display-p3 0.1490 0.1569 0.1725);stroke-opacity:1;" stroke-width="2.5" stroke-linecap="round"/>
  <path d="M128.556 152.509C121.612 159.598 112.036 178.169 121.011 179.753C128.389 181.056 136.491 171.652 138.806 165.865" stroke="#26282C" style="stroke:#26282C;stroke:color(display-p3 0.1490 0.1569 0.1725);stroke-opacity:1;" stroke-width="2.5" stroke-linecap="round"/>
  <path d="M141.844 138.955C144.449 136.206 151.906 132.37 158.503 131.675C166.749 130.807 191.055 136.016 197.999 132.978C204.944 129.939 219.267 166.832 248.347 185.495" stroke="#26282C" style="stroke:#26282C;stroke:color(display-p3 0.1490 0.1569 0.1725);stroke-opacity:1;" stroke-width="2.5" stroke-linecap="round"/>
  <path d="M142.278 167.167C138.669 169.044 130.326 184.13 130.291 206.19C130.291 206.281 130.303 206.372 130.329 206.459C131.403 210.048 135.513 214.176 143.746 202.856C145.571 199.908 149.084 192.302 148.975 184.875C148.969 184.463 149.2 184.084 149.575 183.913C152.342 182.649 157.104 180.271 158.069 178.984" stroke="#26282C" style="stroke:#26282C;stroke:color(display-p3 0.1490 0.1569 0.1725);stroke-opacity:1;" stroke-width="2.5" stroke-linecap="round"/>
  <path d="M148.52 192.873C150.112 200.107 153.295 214.748 153.295 215.443C153.295 216.311 159.206 219.25 161.376 212.74C163.546 206.229 165.881 191.038 159.371 183.226" stroke="#26282C" style="stroke:#26282C;stroke:color(display-p3 0.1490 0.1569 0.1725);stroke-opacity:1;" stroke-width="2.5" stroke-linecap="round"/>
  <path d="M164.956 205.331C168.718 203.884 174.071 199.688 172.335 190.14" stroke="#26282C" style="stroke:#26282C;stroke:color(display-p3 0.1490 0.1569 0.1725);stroke-opacity:1;" stroke-width="2.5" stroke-linecap="round"/>
  <path d="M158.337 148.503C162.244 146.623 167.27 146.779 181.506 153.377" stroke="#26282C" style="stroke:#26282C;stroke:color(display-p3 0.1490 0.1569 0.1725);stroke-opacity:1;" stroke-width="2.5" stroke-linecap="round"/>
  <path d="M184.978 144.696C179.77 154.245 184.978 159.019 184.544 168.568" stroke="#26282C" style="stroke:#26282C;stroke:color(display-p3 0.1490 0.1569 0.1725);stroke-opacity:1;" stroke-width="2.5" stroke-linecap="round"/>
  </svg>
  