<svg width="315" height="252" viewBox="0 0 315 252" fill="none" xmlns="http://www.w3.org/2000/svg">
  <path d="M75.0516 249.647L0.414551 123.884L85.6859 232.717C86.3285 233.537 87.4124 233.873 88.406 233.559L228.381 189.396L78.1458 250.686C76.9994 251.154 75.6834 250.712 75.0516 249.647Z" fill="#26282C" style="fill:#26282C;fill:color(display-p3 0.1490 0.1569 0.1725);fill-opacity:1;"/>
  <path d="M87.1328 192.804L2.81674 89.3765C2.51955 89.012 1.9292 89.2221 1.9292 89.6925V123.336C1.9292 123.446 1.96536 123.553 2.0321 123.64L87.3717 235.18C87.6622 235.56 88.2688 235.354 88.2688 234.876V204.922" stroke="#26282C" style="stroke:#26282C;stroke:color(display-p3 0.1490 0.1569 0.1725);stroke-opacity:1;" stroke-width="2.5" stroke-linecap="round"/>
  <path d="M87.8901 234.838L254.548 178.907C254.752 178.839 254.889 178.648 254.889 178.433V140.488C254.889 140.145 254.552 139.904 254.228 140.014L96.2212 193.94" stroke="#26282C" style="stroke:#26282C;stroke:color(display-p3 0.1490 0.1569 0.1725);stroke-opacity:1;" stroke-width="2.5" stroke-linecap="round"/>
  <path d="M2.30762 89.4239L153.504 36.5051C153.675 36.4453 153.865 36.4825 154 36.6024L170.064 50.7982" stroke="#26282C" style="stroke:#26282C;stroke:color(display-p3 0.1490 0.1569 0.1725);stroke-opacity:1;" stroke-width="2.5" stroke-linecap="round"/>
  <path d="M254.889 140.546L219.293 102.678" stroke="#26282C" style="stroke:#26282C;stroke:color(display-p3 0.1490 0.1569 0.1725);stroke-opacity:1;" stroke-width="2.5" stroke-linecap="round"/>
  <path d="M88.2686 149.256C96.9783 145.09 118.109 140.319 132.953 154.557" stroke="#26282C" style="stroke:#26282C;stroke:color(display-p3 0.1490 0.1569 0.1725);stroke-opacity:1;" stroke-width="2.5" stroke-linecap="round"/>
  <path d="M146.093 146.984C146.093 152.379 142.716 157.433 136.903 161.197C131.104 164.954 123.016 167.319 114.019 167.319C105.022 167.319 96.9352 164.954 91.1353 161.197C85.323 157.433 81.9453 152.379 81.9453 146.984C81.9453 141.588 85.323 136.535 91.1353 132.77C96.9352 129.013 105.022 126.649 114.019 126.649C123.016 126.649 131.104 129.013 136.903 132.77C142.716 136.535 146.093 141.588 146.093 146.984Z" fill="black" fill-opacity="0.3" stroke="#26282C" style="fill:black;fill-opacity:0.3;stroke:#26282C;stroke:color(display-p3 0.1490 0.1569 0.1725);stroke-opacity:1;" stroke-width="2.5"/>
  <path d="M77.2871 81.4715V101.92" stroke="#26282C" style="stroke:#26282C;stroke:color(display-p3 0.1490 0.1569 0.1725);stroke-opacity:1;" stroke-width="2.5" stroke-linecap="round"/>
  <path d="M53.8086 109.115L76.6385 101.63C76.8058 101.575 76.9896 101.612 77.1224 101.728L85.6179 109.115" stroke="#26282C" style="stroke:#26282C;stroke:color(display-p3 0.1490 0.1569 0.1725);stroke-opacity:1;" stroke-width="2.5" stroke-linecap="round"/>
  <path d="M60.7752 124.763L34.2523 94.925C34.0112 94.6537 34.1302 94.224 34.4766 94.1156L77.0001 80.8039C77.1765 80.7487 77.369 80.7953 77.5006 80.9251L104.753 107.809C105.013 108.065 104.919 108.505 104.578 108.633L61.3249 124.899C61.1312 124.972 60.9127 124.918 60.7752 124.763Z" fill="black" fill-opacity="0.3" stroke="#26282C" style="fill:black;fill-opacity:0.3;stroke:#26282C;stroke:color(display-p3 0.1490 0.1569 0.1725);stroke-opacity:1;" stroke-width="2.5" stroke-linecap="round"/>
  <path d="M129.924 84.501V70.1111" stroke="#26282C" style="stroke:#26282C;stroke:color(display-p3 0.1490 0.1569 0.1725);stroke-opacity:1;" stroke-width="2.5" stroke-linecap="round"/>
  <path d="M155.295 78.8209C149.489 76.1701 136.589 73.8223 131.438 85.6371" stroke="#26282C" style="stroke:#26282C;stroke:color(display-p3 0.1490 0.1569 0.1725);stroke-opacity:1;" stroke-width="2.5" stroke-linecap="round"/>
  <path d="M131.439 86.0157C128.409 84.7534 120.684 82.759 114.02 84.8796" stroke="#26282C" style="stroke:#26282C;stroke:color(display-p3 0.1490 0.1569 0.1725);stroke-opacity:1;" stroke-width="2.5" stroke-linecap="round"/>
  <path d="M153.026 59.9595C137.32 53.9543 130.527 63.1924 129.281 67.8134C129.21 68.077 128.959 68.2519 128.69 68.2053C119.582 66.6282 102.201 66.1229 101.903 76.2429C101.602 86.4912 135.515 91.3413 152.765 92.5088C152.932 92.5201 153.085 92.4494 153.185 92.3159C160.181 83.0341 165.804 64.8452 153.026 59.9595Z" fill="black" fill-opacity="0.3" stroke="#26282C" style="fill:black;fill-opacity:0.3;stroke:#26282C;stroke:color(display-p3 0.1490 0.1569 0.1725);stroke-opacity:1;" stroke-width="2.5" stroke-linecap="round"/>
  <path d="M164.384 123.127L190.513 133.351" stroke="#26282C" style="stroke:#26282C;stroke:color(display-p3 0.1490 0.1569 0.1725);stroke-opacity:1;" stroke-width="2.5" stroke-linecap="round"/>
  <path d="M161.442 105.653L165.2 107.099C165.393 107.173 165.519 107.358 165.529 107.564C165.692 110.858 168.194 117.465 177.259 120.097C186.49 122.777 195.257 121.286 198.67 120.156C198.785 120.118 198.906 120.122 199.018 120.167L219.226 128.321C219.65 128.493 219.641 129.097 219.212 129.254L169.478 147.539C169.19 147.645 168.874 147.468 168.815 147.166L160.772 106.216C160.696 105.83 161.075 105.512 161.442 105.653Z" fill="black" fill-opacity="0.3" stroke="#26282C" style="fill:black;fill-opacity:0.3;stroke:#26282C;stroke:color(display-p3 0.1490 0.1569 0.1725);stroke-opacity:1;" stroke-width="2.5" stroke-linecap="round"/>
  <path d="M238.227 11.794L227.357 1.67364C227.285 1.60579 227.194 1.56078 227.096 1.54801C224.665 1.23374 220.378 2.31829 221.565 9.14319" stroke="#26282C" style="stroke:#26282C;stroke:color(display-p3 0.1490 0.1569 0.1725);stroke-opacity:1;" stroke-width="2.5" stroke-linecap="round"/>
  <path d="M215.884 14.8233C206.544 12.9298 197.329 14.0661 187.862 7.62839C183.082 4.37805 176.88 9.5217 183.696 17.474" stroke="#26282C" style="stroke:#26282C;stroke:color(display-p3 0.1490 0.1569 0.1725);stroke-opacity:1;" stroke-width="2.5" stroke-linecap="round"/>
  <path d="M210.204 17.8529C197.707 19.6201 177.259 24.2905 167.791 20.5037C160.38 17.5391 154.917 27.6986 165.52 32.2428C174.003 35.8782 179.783 33.8838 182.181 33.3789" stroke="#26282C" style="stroke:#26282C;stroke:color(display-p3 0.1490 0.1569 0.1725);stroke-opacity:1;" stroke-width="2.5" stroke-linecap="round"/>
  <path d="M183.697 63.2948C185.587 55.7373 196.224 40.186 223.661 38.3136C223.774 38.3059 223.885 38.3343 223.977 38.3992C229.646 42.4049 237.359 53.9515 223.838 68.975C206.797 87.9091 192.407 100.027 198.087 113.281C203.767 126.535 231.411 79.9568 253.754 79.5781C276.096 79.1994 285.942 73.5192 292 67.4603C296.848 62.6131 308.41 69.9848 313.585 74.2766" stroke="#26282C" style="stroke:#26282C;stroke:color(display-p3 0.1490 0.1569 0.1725);stroke-opacity:1;" stroke-width="2.5" stroke-linecap="round"/>
  <path d="M167.414 69.7323C169.181 59.8866 176.502 38.5289 191.649 31.8641C210.583 23.5331 209.447 8.00709 240.499 14.066C271.551 20.1249 297.302 29.2133 310.177 26.1839" stroke="#26282C" style="stroke:#26282C;stroke:color(display-p3 0.1490 0.1569 0.1725);stroke-opacity:1;" stroke-width="2.5" stroke-linecap="round"/>
  <ellipse cx="187.863" cy="78.8208" rx="24.2357" ry="13.2539" fill="#26282C" style="fill:#26282C;fill:color(display-p3 0.1490 0.1569 0.1725);fill-opacity:1;"/>
  <path d="M165.521 78.8208V107.222" stroke="#26282C" style="stroke:#26282C;stroke:color(display-p3 0.1490 0.1569 0.1725);stroke-opacity:1;" stroke-width="2.5" stroke-linecap="round"/>
  </svg>
  