<svg width="198" height="252" viewBox="0 0 198 252" fill="none" xmlns="http://www.w3.org/2000/svg">
  <path d="M81.7472 21.7785L79.8495 11.1503" stroke="#26282C" style="stroke:#26282C;stroke:color(display-p3 0.1490 0.1569 0.1725);stroke-opacity:1;" stroke-width="2.5" stroke-linecap="round"/>
  <path d="M72.375 25.0676L59.93 13.4837" stroke="#26282C" style="stroke:#26282C;stroke:color(display-p3 0.1490 0.1569 0.1725);stroke-opacity:1;" stroke-width="2.5" stroke-linecap="round"/>
  <path d="M67.4305 34.1061L59.9082 29.9494" stroke="#26282C" style="stroke:#26282C;stroke:color(display-p3 0.1490 0.1569 0.1725);stroke-opacity:1;" stroke-width="2.5" stroke-linecap="round"/>
  <path d="M126.744 227.774L121.157 223.203" stroke="#26282C" style="stroke:#26282C;stroke:color(display-p3 0.1490 0.1569 0.1725);stroke-opacity:1;" stroke-width="2.5" stroke-linecap="round"/>
  <path d="M126.744 242.884L117.348 237.17" stroke="#26282C" style="stroke:#26282C;stroke:color(display-p3 0.1490 0.1569 0.1725);stroke-opacity:1;" stroke-width="2.5" stroke-linecap="round"/>
  <path d="M126.744 234.885L114.3 225.869" stroke="#26282C" style="stroke:#26282C;stroke:color(display-p3 0.1490 0.1569 0.1725);stroke-opacity:1;" stroke-width="2.5" stroke-linecap="round"/>
  <path d="M166.743 1.5C164.027 2.42456 159.475 5.57519 162.991 10.7812C166.481 15.9489 169.626 11.5931 170.79 8.71148C170.808 8.66846 170.818 8.62516 170.823 8.57897C170.984 6.85662 170.584 3.75159 167.707 4.59373C164.792 5.44717 165.849 7.6519 166.743 8.64758" stroke="#26282C" style="stroke:#26282C;stroke:color(display-p3 0.1490 0.1569 0.1725);stroke-opacity:1;" stroke-width="2.5" stroke-linecap="round"/>
  <path d="M24.8293 181.952C23.9162 178.428 20.8847 171.928 16.0634 174.125C11.2422 176.322 14.0546 180.259 16.0634 181.952C17.4153 182.868 20.3215 183.847 21.1312 180.442C21.9408 177.036 18.5288 175.635 17.57 177.146C17.0643 177.741 16.4932 179.233 18.2549 180.442" stroke="#26282C" style="stroke:#26282C;stroke:color(display-p3 0.1490 0.1569 0.1725);stroke-opacity:1;" stroke-width="2.5" stroke-linecap="round"/>
  <path d="M2.22729 69.8139C2.86035 71.5651 5.28495 75.1594 9.91891 75.5248C15.7113 75.9817 16.471 77.4437 16.2495 83.7484C16.0279 90.0533 16.6926 93.023 22.7699 91.3782C28.8472 89.7336 37.5518 81.2357 36.0956 90.0533C35.8952 91.3477 35.1461 94.7499 33.7534 98.0028" stroke="#26282C" style="stroke:#26282C;stroke:color(display-p3 0.1490 0.1569 0.1725);stroke-opacity:1;" stroke-width="2.5" stroke-linecap="round"/>
  <path d="M100.36 129.567C88.8815 115.244 93.1226 104.129 96.678 100.362C98.3033 112.45 107.937 117.25 112.55 118.139V122.456C111.128 121.44 103.831 126.773 100.36 129.567Z" fill="#26282C" style="fill:#26282C;fill:color(display-p3 0.1490 0.1569 0.1725);fill-opacity:1;"/>
  <path d="M108.322 68.9614C120.131 62.1046 128.438 74.3322 130.924 78.8656C132.503 78.1837 134.062 79.1498 134.644 79.7181V95.4097C135.101 97.2362 134.964 98.667 134.644 99.6752V109.812C134.644 115.399 128.316 118.718 125.141 119.462L124.613 113.314C128.168 109.657 130.158 103.917 130.708 101.505C131.927 102.216 133.248 101.632 133.755 101.251C134.034 100.991 134.395 100.462 134.644 99.6752V95.4097C133.832 92.1591 131.597 93.4629 130.581 94.5209L124.867 96.1716C124.156 90.6862 120.482 89.4596 118.734 89.5317C119.547 86.2811 116.914 85.3838 115.56 85.0875C114.138 87.627 111.92 88.9392 110.989 89.5317C101.237 94.0013 94.3546 91.4364 90.6722 87.3731C86.7359 83.3098 85.3392 72.3897 93.7197 68.1995C96.4159 66.5787 103.111 64.4623 108.322 68.9614Z" fill="#26282C" style="fill:#26282C;fill:color(display-p3 0.1490 0.1569 0.1725);fill-opacity:1;"/>
  <path d="M124.702 96.2615C124.702 100.045 121.967 102.991 118.734 102.991C115.502 102.991 112.766 100.045 112.766 96.2615C112.766 92.4778 115.502 89.5317 118.734 89.5317C121.967 89.5317 124.702 92.4778 124.702 96.2615Z" stroke="#26282C" style="stroke:#26282C;stroke:color(display-p3 0.1490 0.1569 0.1725);stroke-opacity:1;" stroke-width="2.5"/>
  <path d="M108.703 98.5471C108.703 102.331 105.968 105.277 102.735 105.277C99.5024 105.277 96.7671 102.331 96.7671 98.5471C96.7671 94.7634 99.5024 91.8173 102.735 91.8173C105.968 91.8173 108.703 94.7634 108.703 98.5471Z" stroke="#26282C" style="stroke:#26282C;stroke:color(display-p3 0.1490 0.1569 0.1725);stroke-opacity:1;" stroke-width="2.5"/>
  <path d="M108.74 97.1211L112.73 96.6719" stroke="#26282C" style="stroke:#26282C;stroke:color(display-p3 0.1490 0.1569 0.1725);stroke-opacity:1;" stroke-width="2.5" stroke-linecap="round"/>
  <path d="M112.259 113.403C113.967 113.748 116.126 112.097 116.126 110.193" stroke="#26282C" style="stroke:#26282C;stroke:color(display-p3 0.1490 0.1569 0.1725);stroke-opacity:1;" stroke-width="2.5" stroke-linecap="round"/>
  <path d="M111.624 100.579C110.989 103.753 109.059 106.648 112.004 108.07" stroke="#26282C" style="stroke:#26282C;stroke:color(display-p3 0.1490 0.1569 0.1725);stroke-opacity:1;" stroke-width="2.5" stroke-linecap="round"/>
  <path d="M101.338 105.06C102.39 105.06 103.243 104.207 103.243 103.155C103.243 102.103 102.39 101.251 101.338 101.251C100.286 101.251 99.4336 102.103 99.4336 103.155C99.4336 104.207 100.286 105.06 101.338 105.06Z" fill="#26282C" style="fill:#26282C;fill:color(display-p3 0.1490 0.1569 0.1725);fill-opacity:1;"/>
  <path d="M117.084 102.774C118.136 102.774 118.988 101.922 118.988 100.87C118.988 99.8178 118.136 98.9651 117.084 98.9651C116.032 98.9651 115.179 99.8178 115.179 100.87C115.179 101.922 116.032 102.774 117.084 102.774Z" fill="#26282C" style="fill:#26282C;fill:color(display-p3 0.1490 0.1569 0.1725);fill-opacity:1;"/>
  <path d="M132.448 96.5154C132.744 97.0234 133.159 98.2423 132.448 99.055" stroke="#26282C" style="stroke:#26282C;stroke:color(display-p3 0.1490 0.1569 0.1725);stroke-opacity:1;" stroke-width="2.5" stroke-linecap="round"/>
  <path d="M97.0211 91.6004C95.455 96.5104 95.2658 107.867 106.338 115.689C117.411 123.511 125.935 112.853 128.813 106.547L130.718 101.341C132.03 102.145 134.68 102.61 134.781 98.0392C134.883 93.468 133.046 93.1719 132.115 93.595C131.607 93.8068 130.54 94.5346 130.337 95.7536" stroke="#26282C" style="stroke:#26282C;stroke:color(display-p3 0.1490 0.1569 0.1725);stroke-opacity:1;" stroke-width="2.5" stroke-linecap="round"/>
  <path d="M124.829 96.0075L131.178 94.2299" stroke="#26282C" style="stroke:#26282C;stroke:color(display-p3 0.1490 0.1569 0.1725);stroke-opacity:1;" stroke-width="2.5" stroke-linecap="round"/>
  <path d="M117.719 96.1733C118.764 96.1396 120.939 96.5997 121.274 98.7111" stroke="#26282C" style="stroke:#26282C;stroke:color(display-p3 0.1490 0.1569 0.1725);stroke-opacity:1;" stroke-width="2.5" stroke-linecap="round"/>
  <path d="M99.1797 98.1623C99.8979 97.6836 101.73 96.9413 103.31 97.8032" stroke="#26282C" style="stroke:#26282C;stroke:color(display-p3 0.1490 0.1569 0.1725);stroke-opacity:1;" stroke-width="2.5" stroke-linecap="round"/>
  <path d="M125.015 118.827C122.771 120.689 116.939 123.982 112.571 121.748" stroke="#26282C" style="stroke:#26282C;stroke:color(display-p3 0.1490 0.1569 0.1725);stroke-opacity:1;" stroke-width="2.5" stroke-linecap="round"/>
  <path d="M63.4731 161.872C62.9652 158.952 61.1255 155.168 55.6401 153.746C53.2275 153.196 48.6564 151.841 48.4024 149.683C48.1769 147.766 50.0531 147.442 51.1959 147.781" stroke="#26282C" style="stroke:#26282C;stroke:color(display-p3 0.1490 0.1569 0.1725);stroke-opacity:1;" stroke-width="2.5" stroke-linecap="round"/>
  <path d="M55.7673 151.206C50.4306 149.683 44.1211 136.096 48.6531 136.096C50.4698 136.096 51.9937 140.159 53.1365 142.318" stroke="#26282C" style="stroke:#26282C;stroke:color(display-p3 0.1490 0.1569 0.1725);stroke-opacity:1;" stroke-width="2.5" stroke-linecap="round"/>
  <path d="M55.113 136.858C57.2907 136.858 57.824 136.883 59.9572 142.572" stroke="#26282C" style="stroke:#26282C;stroke:color(display-p3 0.1490 0.1569 0.1725);stroke-opacity:1;" stroke-width="2.5" stroke-linecap="round"/>
  <path d="M58.9417 139.524C59.3226 138.678 60.5416 137.823 62.37 141.175C63.6398 143.503 65.2397 148.743 68.5919 150.064C71.9441 151.384 72.0203 152.603 72.2743 153.365" stroke="#26282C" style="stroke:#26282C;stroke:color(display-p3 0.1490 0.1569 0.1725);stroke-opacity:1;" stroke-width="2.5" stroke-linecap="round"/>
  <path d="M73.0804 156.92C65.208 156.285 60.8146 164.996 70.1601 183.078C81.8421 205.68 110.285 221.552 118.411 164.031" stroke="#26282C" style="stroke:#26282C;stroke:color(display-p3 0.1490 0.1569 0.1725);stroke-opacity:1;" stroke-width="2.5" stroke-linecap="round"/>
  <path d="M73.0808 156.92C75.6204 157.471 82.3248 161.746 88.826 174.443C96.9526 190.315 84.2548 152.222 100.889 128.096" stroke="#26282C" style="stroke:#26282C;stroke:color(display-p3 0.1490 0.1569 0.1725);stroke-opacity:1;" stroke-width="2.5" stroke-linecap="round"/>
  <path d="M52.7554 134.572H56.4377C57.9805 134.572 59.2312 135.823 59.2312 137.366V138.763" stroke="#26282C" style="stroke:#26282C;stroke:color(display-p3 0.1490 0.1569 0.1725);stroke-opacity:1;" stroke-width="2.5" stroke-linecap="round"/>
  <path d="M54.6602 134.572V117.303" stroke="#26282C" style="stroke:#26282C;stroke:color(display-p3 0.1490 0.1569 0.1725);stroke-opacity:1;" stroke-width="2.5" stroke-linecap="round"/>
  <path d="M47.2955 125.684H54.1523C54.4327 125.684 54.6602 125.457 54.6602 125.176V118.827C54.6602 118.547 54.4327 118.319 54.1523 118.319H49.4424C49.1621 118.319 48.9345 118.547 48.9345 118.827V120.512C48.9345 120.792 49.1621 121.02 49.4424 121.02H50.3351C50.6157 121.02 50.843 121.247 50.843 121.527V122.23C50.843 122.511 50.6157 122.738 50.3351 122.738H47.2955C47.0149 122.738 46.7876 122.965 46.7876 123.246V125.176C46.7876 125.457 47.0149 125.684 47.2955 125.684Z" fill="#26282C" style="fill:#26282C;fill:color(display-p3 0.1490 0.1569 0.1725);fill-opacity:1;"/>
  <path d="M77.9058 195.521V206.442C77.9058 207.844 79.043 208.981 80.4453 208.981H193.963C195.366 208.981 196.503 207.844 196.503 206.442V36.5458C196.503 35.1432 195.366 34.0062 193.963 34.0062H80.4453C79.043 34.0062 77.9058 35.1432 77.9058 36.5458V158.698" stroke="#26282C" style="stroke:#26282C;stroke:color(display-p3 0.1490 0.1569 0.1725);stroke-opacity:1;" stroke-width="2.5" stroke-linecap="round"/>
  <path d="M135.568 76.6831L193.724 33.6976C195.4 32.4586 197.773 33.6552 197.773 35.7399V206.832C197.773 207.647 197.382 208.411 196.723 208.889L138.567 251.013C136.888 252.229 134.538 251.029 134.538 248.956V78.7254C134.538 77.9196 134.92 77.1618 135.568 76.6831Z" fill="#26282C" style="fill:#26282C;fill:color(display-p3 0.1490 0.1569 0.1725);fill-opacity:1;"/>
  <path d="M50.0889 136.477C50.5968 134.064 53.4665 132.16 56.3108 140.794" stroke="#26282C" style="stroke:#26282C;stroke:color(display-p3 0.1490 0.1569 0.1725);stroke-opacity:1;" stroke-width="2.5" stroke-linecap="round"/>
  </svg>
  